<?xml version="1.0" encoding="UTF-8" standalone="no"?>
<!-- Created with Inkscape (http://www.inkscape.org/) -->

<svg
   width="220.5036mm"
   height="99.128883mm"
   viewBox="0 0 220.5036 99.128883"
   version="1.1"
   id="svg1"
   xml:space="preserve"
   xmlns:inkscape="http://www.inkscape.org/namespaces/inkscape"
   xmlns:sodipodi="http://sodipodi.sourceforge.net/DTD/sodipodi-0.dtd"
   xmlns="http://www.w3.org/2000/svg"
   xmlns:svg="http://www.w3.org/2000/svg"><sodipodi:namedview
     id="namedview1"
     pagecolor="#ffffff"
     bordercolor="#000000"
     borderopacity="0.25"
     inkscape:showpageshadow="2"
     inkscape:pageopacity="0.0"
     inkscape:pagecheckerboard="0"
     inkscape:deskcolor="#d1d1d1"
     inkscape:document-units="mm"
     showgrid="false"><inkscape:page
       x="6.5135512e-15"
       y="0"
       width="220.50362"
       height="99.128883"
       id="page2"
       margin="0"
       bleed="0" /></sodipodi:namedview><defs
     id="defs1" /><g
     inkscape:label="Layer 1"
     inkscape:groupmode="layer"
     id="layer1"
     transform="translate(5.893357,-82.317313)"><path
       style="fill:currentColor"
       d="m 27.264497,180.76752 c -0.761131,-0.76113 -0.727604,-0.56469 -1.647866,-9.65499 -2.451314,-24.21395 -0.973145,-43.65625 3.319116,-43.65625 2.27311,0 3.02368,2.14187 4.26502,12.17083 0.44948,3.6314 0.44732,19.03554 -0.003,23.68021 -0.54429,5.60992 -1.64025,15.5625 -1.78705,16.22852 -0.40079,1.81835 -2.83581,2.54176 -4.1459,1.23168 z m 31.41555,0.41363 c -1.56908,-0.64221 -1.91405,-2.44308 -2.89171,-15.09571 -1.9547,-25.29726 -0.4391,-60.90047 2.65529,-62.37609 1.81099,-0.86359 3.38446,0.30669 3.64708,2.71255 0.0794,0.7276 0.32194,2.87073 0.53891,4.7625 2.19898,19.17263 2.20018,41.67489 0.003,62.2734 -0.72103,6.76067 -0.80175,7.05087 -2.11362,7.599 -1.00764,0.42102 -1.09931,0.42722 -1.83929,0.12435 z m 29.40484,-0.71199 c -0.38365,-0.38365 -0.69754,-0.79717 -0.69754,-0.91895 0,-0.12177 -0.23295,-2.69515 -0.51766,-5.71861 -2.16965,-23.04051 -2.16479,-46.97262 0.0142,-70.15234 0.63989,-6.806881 0.8621,-7.302221 3.24534,-7.234461 2.02986,0.0577 2.09671,0.3057 2.93936,10.903141 1.37664,17.31312 1.55129,21.24825 1.56767,35.32188 0.0178,15.27166 -0.40209,22.51889 -1.95426,33.73165 -0.65145,4.70602 -2.40617,6.25866 -4.59714,4.06769 z m -45.48811,-0.30202 c -2.14992,-2.24403 -3.56995,-35.99707 -2.21762,-52.71086 0.69657,-8.60904 1.42238,-14.52673 1.86446,-15.20144 1.45014,-2.21319 4.40224,-1.11422 4.76149,1.77253 1.5895,12.77235 1.88536,17.78602 1.88536,31.94974 0,13.05321 -0.15363,16.36589 -1.20868,26.06146 -0.77081,7.08356 -0.86613,7.55044 -1.68536,8.25511 -1.02429,0.88106 -2.48645,0.82663 -3.39965,-0.12654 z m 30.78623,5.1e-4 c -0.85995,-0.85996 -0.8755,-0.94693 -1.59546,-8.92283 -1.80834,-20.03349 -1.5294,-45.31544 0.68526,-62.10864 0.38267,-2.90176 5.12495,-3.61926 5.12495,-0.7754 0,0.0982 0.23134,2.2024 0.51408,4.67606 1.28319,11.22651 1.45943,14.91689 1.45943,30.55902 0,15.64213 -0.17624,19.33251 -1.45943,30.55902 -0.28274,2.47366 -0.51408,4.65571 -0.51408,4.849 0,1.63437 -2.93401,2.4445 -4.21475,1.16377 z m 32.128293,0.23179 c -0.58208,-0.27007 -1.43925,-0.89254 -1.90481,-1.38325 -1.79372,-1.89059 -1.66706,1.52982 -1.66706,-45.01717 V 91.841419 l 0.6972,-1.39909 c 2.95489,-5.9297 19.84446,-9.73968 33.03718,-7.45259 19.6288,3.40285 35.67826,17.934021 40.49188,36.661331 0.26183,1.01864 0.50579,1.8921 0.54213,1.94101 0.0363,0.0489 0.9984,-0.12726 2.13791,-0.39151 9.18104,-2.12904 20.71059,1.50493 27.4871,8.66359 16.69799,17.63965 6.72966,46.72384 -17.35275,50.62937 -4.22678,0.68548 -81.97751,0.59783 -83.46878,-0.0941 z m -92.396698,-1.81911 c -1.087824,-0.17424 -1.831008,-1.43419 -2.168114,-3.67572 -2.2834289,-15.18321 -2.2847889,-31.28753 -0.0039,-46.45155 0.446809,-2.97054 1.809211,-4.10156 3.892252,-3.23121 1.180641,0.49331 1.483175,1.34896 2.146479,6.07088 2.138817,15.2258 1.968725,29.94207 -0.509996,44.12467 -0.436014,2.49475 -1.46643,3.46569 -3.356698,3.16293 z m -16.4533599,-8.63077 c -2.887875,-3.074 -3.499255,-25.04748 -0.944417,-33.94311 0.819182,-2.85229 3.72044804,-3.39112 4.99319204,-0.92734 0.36896096,0.71423 1.58446596,5.87537 1.85000896,7.85529 2.06207,15.37508 -1.50157,31.69578 -5.898784,27.01516 z"
       id="path1" /></g></svg>
